<svg width="7" height="13" viewBox="0 0 7 13" fill="none" xmlns="http://www.w3.org/2000/svg">
<path d="M6.85506 12.8548C6.80861 12.9014 6.75344 12.9383 6.69269 12.9635C6.63195 12.9887 6.56683 13.0017 6.50106 13.0017C6.43529 13.0017 6.37017 12.9887 6.30943 12.9635C6.24868 12.9383 6.19351 12.9014 6.14706 12.8548L0.147059 6.85482C0.100496 6.80837 0.0635537 6.75319 0.0383472 6.69245C0.0131408 6.6317 0.000165939 6.56658 0.000165939 6.50082C0.000165939 6.43505 0.0131408 6.36993 0.0383472 6.30918C0.0635537 6.24844 0.100496 6.19326 0.147059 6.14682L6.14706 0.146815C6.24095 0.0529287 6.36828 0.000184059 6.50106 0.000184059C6.63384 0.000184059 6.76117 0.0529287 6.85506 0.146815C6.94895 0.240702 7.00169 0.36804 7.00169 0.500815C7.00169 0.633591 6.94895 0.760929 6.85506 0.854815L1.20806 6.50082L6.85506 12.1468C6.90162 12.1933 6.93857 12.2484 6.96377 12.3092C6.98898 12.3699 7.00195 12.435 7.00195 12.5008C7.00195 12.5666 6.98898 12.6317 6.96377 12.6924C6.93857 12.7532 6.90162 12.8084 6.85506 12.8548Z" fill="#F4D30A"/>
</svg>
